<svg width="46" height="46" viewBox="0 0 46 46" fill="none" xmlns="http://www.w3.org/2000/svg">
<g clip-path="url(#clip0_1_14962)">
<path d="M17.25 21.0833C17.25 22.6083 17.8558 24.0708 18.9341 25.1492C20.0125 26.2275 21.475 26.8333 23 26.8333C24.525 26.8333 25.9875 26.2275 27.0659 25.1492C28.1442 24.0708 28.75 22.6083 28.75 21.0833C28.75 19.5583 28.1442 18.0958 27.0659 17.0174C25.9875 15.9391 24.525 15.3333 23 15.3333C21.475 15.3333 20.0125 15.9391 18.9341 17.0174C17.8558 18.0958 17.25 19.5583 17.25 21.0833Z" stroke="white" stroke-width="3" stroke-linecap="round" stroke-linejoin="round"/>
<path d="M33.8426 31.9254L25.7102 40.0578C24.9914 40.7758 24.017 41.1792 23.001 41.1792C21.985 41.1792 21.0106 40.7758 20.2918 40.0578L12.1574 31.9254C10.0131 29.7809 8.55284 27.0488 7.96126 24.0744C7.36969 21.1001 7.67338 18.0171 8.83395 15.2153C9.99452 12.4136 11.9598 10.0189 14.4814 8.33408C17.0029 6.64926 19.9674 5.75 23 5.75C26.0326 5.75 28.9972 6.64926 31.5187 8.33408C34.0402 10.0189 36.0055 12.4136 37.1661 15.2153C38.3267 18.0171 38.6304 21.1001 38.0388 24.0744C37.4472 27.0488 35.9869 29.7809 33.8426 31.9254Z" stroke="white" stroke-width="3" stroke-linecap="round" stroke-linejoin="round"/>
</g>
<defs>
<clipPath id="clip0_1_14962">
<rect width="46" height="46" fill="white"/>
</clipPath>
</defs>
</svg>
