<svg width="26" height="26" viewBox="0 0 26 26" fill="none" xmlns="http://www.w3.org/2000/svg">
<g clip-path="url(#clip0_12_148)">
<path d="M9.75 11.9166C9.75 12.7786 10.0924 13.6052 10.7019 14.2147C11.3114 14.8242 12.138 15.1666 13 15.1666C13.862 15.1666 14.6886 14.8242 15.2981 14.2147C15.9076 13.6052 16.25 12.7786 16.25 11.9166C16.25 11.0547 15.9076 10.228 15.2981 9.61853C14.6886 9.00904 13.862 8.66663 13 8.66663C12.138 8.66663 11.3114 9.00904 10.7019 9.61853C10.0924 10.228 9.75 11.0547 9.75 11.9166Z" stroke="black" stroke-width="1.5" stroke-linecap="round" stroke-linejoin="round"/>
<path d="M19.1284 18.0448L14.5318 22.6413C14.1256 23.0472 13.5748 23.2752 13.0005 23.2752C12.4263 23.2752 11.8755 23.0472 11.4692 22.6413L6.87157 18.0448C5.65956 16.8327 4.83418 15.2884 4.49981 13.6073C4.16544 11.9261 4.3371 10.1836 4.99307 8.59997C5.64904 7.01637 6.75987 5.66285 8.18509 4.71057C9.6103 3.75828 11.2859 3.25 13 3.25C14.7141 3.25 16.3897 3.75828 17.8149 4.71057C19.2401 5.66285 20.3509 7.01637 21.0069 8.59997C21.6629 10.1836 21.8345 11.9261 21.5002 13.6073C21.1658 15.2884 20.3404 16.8327 19.1284 18.0448Z" stroke="black" stroke-width="1.5" stroke-linecap="round" stroke-linejoin="round"/>
</g>
<defs>
<clipPath id="clip0_12_148">
<rect width="26" height="26" fill="white"/>
</clipPath>
</defs>
</svg>
