<svg width="54" height="54" viewBox="0 0 54 54" fill="none" xmlns="http://www.w3.org/2000/svg">
<path d="M2.6352e-06 26.9838C1.98298e-06 41.9048 12.0879 54 27 54L45.9 54C48.0483 54 50.1085 53.1461 51.6276 51.6261C53.1466 50.1062 54 48.0447 54 45.8951L54 28.3346L42.1551 28.3346C39.4524 28.3346 36.6525 28.4994 34.3521 29.9178C32.7035 30.9331 31.2924 32.2915 30.2146 33.9006C29.1369 35.5097 28.4176 37.332 28.1057 39.2438L28.0219 39.7611C27.9491 39.9744 27.8114 40.1596 27.6281 40.2907C27.4449 40.4218 27.2253 40.4922 27 40.4922C26.7747 40.4922 26.5551 40.4218 26.3719 40.2907C26.1886 40.1596 26.0509 39.9744 25.9781 39.7611L25.8944 39.2438C25.4383 36.4505 24.117 33.8711 22.1169 31.8698C20.1168 29.8685 17.539 28.5464 14.7474 28.0901L14.2304 28.0064C14.0172 27.9335 13.8321 27.7957 13.7011 27.6123C13.5701 27.429 13.4997 27.2092 13.4997 26.9838C13.4997 26.7584 13.5701 26.5386 13.7011 26.3553C13.8321 26.1719 14.0172 26.0341 14.2304 25.9612L14.7474 25.8775C16.658 25.5653 18.4791 24.8455 20.0873 23.7671C21.6954 22.6887 23.053 21.2768 24.0678 19.6273C25.4853 17.3255 25.65 14.5239 25.65 11.8196L25.65 2.57548e-06C11.3657 0.706476 3.26758e-06 12.5166 2.6352e-06 26.9838Z" fill="white"/>
</svg>
